<mxfile host="app.diagrams.net" modified="2021-06-29T15:49:42.303Z" agent="5.0 (Macintosh; Intel Mac OS X 10_15_7) AppleWebKit/537.36 (KHTML, like Gecko) Chrome/90.0.4430.85 Safari/537.36" etag="NIkdGCp0i40H0PG5d8Qp" version="14.8.0" type="github">
  <diagram id="zeZPy2VcDyRLW5fq2OZn" name="Page-1">
    <mxGraphModel dx="2066" dy="1154" grid="1" gridSize="10" guides="1" tooltips="1" connect="1" arrows="1" fold="1" page="1" pageScale="1" pageWidth="827" pageHeight="1169" math="0" shadow="0">
      <root>
        <mxCell id="0" />
        <mxCell id="1" parent="0" />
        <mxCell id="PFV4z36FYFYo52sKlqzM-1" value="" style="rounded=0;whiteSpace=wrap;html=1;fillColor=#dae8fc;strokeColor=#6c8ebf;" vertex="1" parent="1">
          <mxGeometry x="490" y="410" width="120" height="60" as="geometry" />
        </mxCell>
        <mxCell id="PFV4z36FYFYo52sKlqzM-4" style="edgeStyle=orthogonalEdgeStyle;rounded=0;orthogonalLoop=1;jettySize=auto;html=1;" edge="1" parent="1" source="PFV4z36FYFYo52sKlqzM-2" target="PFV4z36FYFYo52sKlqzM-3">
          <mxGeometry relative="1" as="geometry" />
        </mxCell>
        <mxCell id="PFV4z36FYFYo52sKlqzM-2" value="" style="shape=dataStorage;whiteSpace=wrap;html=1;fixedSize=1;" vertex="1" parent="1">
          <mxGeometry x="330" y="400" width="100" height="80" as="geometry" />
        </mxCell>
        <mxCell id="PFV4z36FYFYo52sKlqzM-3" value="" style="shape=dataStorage;whiteSpace=wrap;html=1;fixedSize=1;fillColor=#f8cecc;strokeColor=#b85450;" vertex="1" parent="1">
          <mxGeometry x="120" y="400" width="100" height="80" as="geometry" />
        </mxCell>
      </root>
    </mxGraphModel>
  </diagram>
</mxfile>
